<?xml version="1.0" encoding="UTF-8"?>
<svg id="Layer_1" xmlns="http://www.w3.org/2000/svg" version="1.1" viewBox="0 0 1080 1080">
  <!-- Generator: Adobe Illustrator 29.8.2, SVG Export Plug-In . SVG Version: 2.1.1 Build 3)  -->
  <defs>
    <style>
      .st0 {
        fill: #bddfb7;
      }
    </style>
  </defs>
  <path class="st0" d="M787.79,116c-75.84-43.34-158.53-65-247.79-65s-173.41,21.66-248.72,65c-75.3,43.32-134.89,101.98-178.92,176.09-44.03,74.11-66.05,155.62-66.05,244.78s22.02,170.69,66.05,244.8c44.03,74.11,103.61,132.37,178.92,175.05,75.17,42.66,158.12,64.06,248.72,64.06s171.81-21.4,247.79-64.06c75.84-42.67,135.84-101.06,179.86-175.05,44.03-74.11,66.03-155.62,66.03-244.8s-22.01-170.67-66.03-244.78c-44.03-74.11-104.02-132.77-179.86-176.09ZM786.84,683.65c-25.5,43.99-59.99,78.73-103.35,104.51-43.36,25.76-91.14,38.57-143.49,38.57s-102.01-12.81-145.37-38.57c-43.34-25.78-77.44-60.51-102.27-104.51-24.83-43.85-37.32-92.87-37.32-146.9s12.49-103.17,37.32-147.82c24.83-44.52,58.93-79.66,102.27-105.42,43.36-25.76,91.82-38.57,145.37-38.57s100.13,12.95,143.49,38.57c43.36,25.76,77.72,60.91,103.35,105.42,25.52,44.52,38.26,93.8,38.26,147.82s-12.75,102.91-38.26,146.9Z"/>
</svg>