<?xml version="1.0" encoding="UTF-8"?>
<svg id="Layer_1" xmlns="http://www.w3.org/2000/svg" version="1.1" viewBox="0 0 1330 384">
  <!-- Generator: Adobe Illustrator 29.8.2, SVG Export Plug-In . SVG Version: 2.1.1 Build 3)  -->
  <defs>
    <style>
      .st0, .st1 {
        fill: #fff;
      }

      .st2 {
        fill: none;
        stroke: #fff;
        stroke-miterlimit: 10;
        stroke-width: 25px;
      }

      .st1 {
        font-family: Avantt-SemiBold, Avantt;
        font-size: 351.75px;
        font-weight: 600;
      }
    </style>
  </defs>
  <path class="st0" d="M253.51,124.65c-13.93-7.96-29.11-11.94-45.51-11.94s-31.85,3.98-45.68,11.94c-13.83,7.96-24.78,18.73-32.86,32.34-8.09,13.61-12.13,28.58-12.13,44.96s4.04,31.35,12.13,44.96c8.09,13.61,19.03,24.31,32.86,32.15,13.8,7.83,29.04,11.77,45.68,11.77s31.56-3.93,45.51-11.77c13.93-7.84,24.95-18.56,33.04-32.15,8.08-13.61,12.13-28.58,12.13-44.96s-4.04-31.35-12.13-44.96c-8.09-13.61-19.11-24.38-33.04-32.34ZM253.34,228.91c-4.68,8.08-11.02,14.46-18.98,19.19-7.96,4.73-16.74,7.08-26.35,7.08s-18.74-2.35-26.7-7.08c-7.96-4.73-14.22-11.11-18.79-19.19-4.56-8.05-6.85-17.06-6.85-26.98s2.29-18.95,6.85-27.15c4.56-8.18,10.82-14.63,18.79-19.36,7.96-4.73,16.86-7.08,26.7-7.08s18.39,2.38,26.35,7.08c7.96,4.73,14.27,11.19,18.98,19.36,4.68,8.18,7.02,17.23,7.02,27.15s-2.34,18.9-7.02,26.98Z"/>
  <text class="st1" transform="translate(406 286.94)"><tspan x="0" y="0">prism</tspan></text>
  <path class="st2" d="M180.47,54.12l-113.48,196.55c-12.24,21.2,3.06,47.71,27.54,47.71h226.95c24.48,0,39.79-26.5,27.54-47.71L235.56,54.12c-12.24-21.2-42.85-21.2-55.09,0Z"/>
</svg>